<?xml version="1.0" encoding="utf-8"?>
<!-- Generator: Adobe Illustrator 22.1.0, SVG Export Plug-In . SVG Version: 6.00 Build 0)  -->
<svg version="1.1" id="Слой_1" xmlns="http://www.w3.org/2000/svg" xmlns:xlink="http://www.w3.org/1999/xlink" x="0px" y="0px"
	 viewBox="0 0 120.3 120.3" style="enable-background:new 0 0 120.3 120.3;" xml:space="preserve">
<style type="text/css">
	.st0{fill:none;stroke:#FFE483;stroke-width:2;stroke-miterlimit:10;}
</style>
<path class="st0" d="M107.3,119.3H13c-6.6,0-12-5.4-12-12V13C1,6.4,6.4,1,13,1h94.3c6.6,0,12,5.4,12,12v94.3
	C119.3,113.9,113.9,119.3,107.3,119.3z"/>
<g>
	<g id="photo-camera_1_" transform="translate(0 -10)">
		<g id="Group_307_1_" transform="translate(0 10)">
			<path id="Path_383_1_" class="st0" d="M60.2,55.5c-3.9,0-7,3.1-7,7s3.1,7,7,7s7-3.1,7-7l0,0C67.2,58.7,64,55.5,60.2,55.5z
				 M78.9,48.5h-5.6c-0.8,0-1.5-0.6-1.9-1.3L70,42.8c-0.2-0.7-1.1-1.2-1.8-1.3H52.3c-0.8,0-1.5,0.6-1.9,1.3l-1.4,4.4
				c-0.2,0.8-1.1,1.3-1.8,1.3h-5.7c-2.5,0-4.6,2.1-4.6,4.8v21c0,2.6,2.1,4.6,4.6,4.6h37.4c2.6,0,4.6-2.1,4.6-4.6v-21
				C83.5,50.6,81.5,48.5,78.9,48.5z M60.2,74.2c-6.4,0-11.6-5.2-11.6-11.6S53.8,51,60.2,51s11.6,5.2,11.6,11.6S66.6,74.2,60.2,74.2
				L60.2,74.2z M77.2,56.4c-1,0-1.7-0.7-1.7-1.7c0-1,0.7-1.7,1.7-1.7c1,0,1.7,0.7,1.7,1.7C78.9,55.7,78.2,56.4,77.2,56.4L77.2,56.4z
				"/>
		</g>
	</g>
</g>
</svg>
