<?xml version="1.0" standalone="no"?>
<!DOCTYPE svg PUBLIC "-//W3C//DTD SVG 20010904//EN"
 "http://www.w3.org/TR/2001/REC-SVG-20010904/DTD/svg10.dtd">
<svg version="1.0" xmlns="http://www.w3.org/2000/svg"
 width="700.000000pt" height="700.000000pt" viewBox="0 0 700.000000 700.000000"
 preserveAspectRatio="xMidYMid meet">
<metadata>
Created by potrace 1.11, written by Peter Selinger 2001-2013
</metadata>
<g transform="translate(0.000000,700.000000) scale(0.100000,-0.100000)"
fill="#000000" stroke="none">
<path d="M2765 6484 c-624 -57 -1181 -321 -1610 -765 -396 -409 -635 -914
-700 -1480 -24 -202 -17 -1574 8 -1724 25 -149 84 -377 127 -490 194 -518 432
-873 785 -1170 253 -212 519 -363 810 -458 221 -72 285 -86 510 -112 187 -22
1418 -22 1615 0 456 51 907 237 1264 522 187 149 413 400 545 606 68 106 213
391 267 525 86 213 151 480 173 706 14 143 15 1408 1 1547 -58 581 -296 1101
-695 1518 -388 404 -871 658 -1435 753 -119 20 -161 22 -875 23 -412 1 -768 1
-790 -1z m934 -837 c193 -67 338 -213 404 -407 21 -63 22 -78 25 -627 l3 -563
542 0 c518 0 546 -1 617 -21 220 -61 388 -231 445 -448 19 -73 21 -227 4 -297
-21 -88 -84 -205 -148 -276 -77 -84 -152 -134 -261 -172 l-85 -31 -557 -3
-557 -3 -3 -562 -3 -562 -24 -69 c-159 -449 -712 -577 -1043 -241 -64 65 -121
158 -151 245 -21 64 -22 78 -25 628 l-3 562 -530 0 c-579 0 -608 2 -734 60
-219 99 -365 330 -365 575 1 133 67 304 159 406 66 73 168 143 261 177 l75 27
567 3 567 3 3 567 3 567 26 72 c34 93 106 200 177 263 68 61 192 125 282 145
95 22 237 14 329 -18z"/>
</g>
</svg>
